<?xml version="1.0" encoding="UTF-8" standalone="no"?>
<svg
   xmlns:dc="http://purl.org/dc/elements/1.1/"
   xmlns:cc="http://creativecommons.org/ns#"
   xmlns:rdf="http://www.w3.org/1999/02/22-rdf-syntax-ns#"
   xmlns:svg="http://www.w3.org/2000/svg"
   xmlns="http://www.w3.org/2000/svg"
   xmlns:sodipodi="http://sodipodi.sourceforge.net/DTD/sodipodi-0.dtd"
   xmlns:inkscape="http://www.inkscape.org/namespaces/inkscape"
   width="24"
   height="24"
   viewBox="0 0 24 24"
   id="svg2"
   version="1.1"
   inkscape:version="0.91 r13725"
   sodipodi:docname="database_24.svg">
  <metadata
     id="metadata10">
    <rdf:RDF>
      <cc:Work
         rdf:about="">
        <dc:format>image/svg+xml</dc:format>
        <dc:type
           rdf:resource="http://purl.org/dc/dcmitype/StillImage" />
      </cc:Work>
    </rdf:RDF>
  </metadata>
  <defs
     id="defs8" />
  <sodipodi:namedview
     pagecolor="#ffffff"
     bordercolor="#666666"
     borderopacity="1"
     objecttolerance="10"
     gridtolerance="10"
     guidetolerance="10"
     inkscape:pageopacity="0"
     inkscape:pageshadow="2"
     inkscape:window-width="1680"
     inkscape:window-height="1013"
     id="namedview6"
     showgrid="false"
     inkscape:zoom="9.8333333"
     inkscape:cx="26.439389"
     inkscape:cy="-6.1438076"
     inkscape:window-x="1920"
     inkscape:window-y="0"
     inkscape:window-maximized="1"
     inkscape:current-layer="svg2" />
  <path
     id="path4207"
     style="stroke-width:0.2;stroke-miterlimit:4;stroke-dasharray:none"
     d="m 11.904376,2.20875 c 2.562369,0 4.766936,0.2367143 6.476249,0.555 0.992131,0.1847416 1.388899,0.3850315 2.015625,0.5906251 -1.635265,0.5166834 -4.250981,1.06125 -8.491874,1.06125 C 7.7410092,4.4156251 5.2009969,3.8386807 3.63,3.335625 4.1891072,3.1356271 4.499494,2.9448601 5.431875,2.76375 7.065595,2.4464088 9.244946,2.2087501 11.904376,2.20875 Z M 11.904297,0 C 8.6073544,0 5.7223853,0.3360536 3.625,0.87890625 2.5763075,1.1503326 1.7245073,1.469418 1.0976562,1.8515625 0.47080519,2.233707 0,2.7203751 0,3.359375 c 0,0.051872 0.02131674,0.096598 0.02734375,0.1464844 l -0.02734375,0 0,2.2539062 0,3.1699219 0,2.5898435 0,3.169922 0,2.683594 0,3.076172 c 0,0.84 0.62761639,1.474055 1.4433594,1.914062 0.8157431,0.440007 1.8857275,0.752927 3.0820312,0.992188 C 6.9179976,23.833991 9.8151124,24 12,24 c 2.18489,0 5.082002,-0.166009 7.474609,-0.644531 1.196304,-0.239261 2.266288,-0.552181 3.082032,-0.992188 C 23.372384,21.923274 24,21.289219 24,20.449219 l 0,-3.076172 0,-0.09375 0,-2.494141 0,-3.265625 0,-2.5898435 0,-3.1699219 0,-2.2539062 -0.02734,0 C 23.978755,3.4559804 24,3.4113653 24,3.359375 24,2.7053751 23.502455,2.227204 22.851562,1.8476562 22.200671,1.4681085 21.317626,1.1497936 20.240234,0.87890625 18.085449,0.33713186 15.153728,0 11.904297,0 Z m 9.986328,5.3320312 0,0.4277344 -0.002,0 0,3.0664063 c -0.05233,0.046928 -0.169401,0.1276775 -0.345703,0.2167969 -0.358446,0.1811924 -0.950593,0.3958046 -1.771485,0.59375 C 18.129704,10.03261 15.570134,10.369141 12,10.369141 8.4320009,10.369141 5.875421,10.009399 4.2324219,9.6015625 3.4109223,9.3976439 2.8164226,9.1796527 2.453125,9 2.2809196,8.9148435 2.1694216,8.8399133 2.1113281,8.7929688 l 0,-3.0332032 -0.00195,0 0,-0.4042968 c 0.4468594,0.1767661 0.9497353,0.3379093 1.515625,0.484375 2.0973853,0.5428527 4.9823544,0.8808593 8.279297,0.8808593 3.29694,0 6.229418,-0.3387924 8.373047,-0.8808593 0.605323,-0.1530704 1.140064,-0.3220152 1.613281,-0.5078126 z M 2.109375,11.144531 c 0.7093003,0.287499 1.5455047,0.510809 2.453125,0.691407 2.4039924,0.478345 5.300046,0.644531 7.4375,0.644531 2.18489,0 5.082002,-0.16601 7.474609,-0.644531 0.894178,-0.178836 1.716269,-0.400232 2.416016,-0.683594 l 0,0.367187 -0.002,0 0,3.146485 c -0.06195,0.05077 -0.193453,0.135535 -0.386719,0.226562 -0.39236,0.184798 -1.024157,0.401018 -1.871094,0.59961 -1.693874,0.397183 -4.254407,0.732421 -7.630859,0.732421 -3.5679991,0 -6.124579,-0.35974 -7.7675781,-0.767578 C 3.4109223,15.253115 2.8164226,15.035123 2.453125,14.855469 2.2809196,14.770314 2.1694216,14.695382 2.1113281,14.648438 l 0,-3.128907 -0.00195,0 0,-0.375 z m 0,5.767578 c 0.6997465,0.283362 1.5218384,0.504758 2.4160156,0.683594 2.392607,0.478521 5.2897218,0.644531 7.4746094,0.644531 2.18489,0 5.081804,-0.168855 7.472656,-0.634765 0.895863,-0.174578 1.718597,-0.387325 2.417969,-0.66211 l 0,0.335938 -0.002,0 0,3.050781 c -0.06195,0.05077 -0.193453,0.135537 -0.386719,0.226563 -0.39236,0.1848 -1.024157,0.40297 -1.871094,0.601562 -1.693874,0.397185 -4.254407,0.730469 -7.630859,0.730469 -3.5679991,0 -6.124579,-0.359741 -7.7675781,-0.767578 C 3.4109223,20.917175 2.8164226,20.699183 2.453125,20.519531 2.2809196,20.434374 2.1694216,20.361398 2.1113281,20.314453 l 0,-3.035156 -0.00195,0 0,-0.367188 z" />
</svg>
