<?xml version="1.0" encoding="UTF-8" standalone="no"?>
<svg
   xmlns:dc="http://purl.org/dc/elements/1.1/"
   xmlns:cc="http://creativecommons.org/ns#"
   xmlns:rdf="http://www.w3.org/1999/02/22-rdf-syntax-ns#"
   xmlns:svg="http://www.w3.org/2000/svg"
   xmlns="http://www.w3.org/2000/svg"
   xmlns:sodipodi="http://sodipodi.sourceforge.net/DTD/sodipodi-0.dtd"
   xmlns:inkscape="http://www.inkscape.org/namespaces/inkscape"
   viewBox="0 0 32 32"
   id="svg2"
   version="1.1"
   inkscape:version="0.91 r13725"
   sodipodi:docname="dataclass_32.svg">
  <metadata
     id="metadata12">
    <rdf:RDF>
      <cc:Work
         rdf:about="">
        <dc:format>image/svg+xml</dc:format>
        <dc:type
           rdf:resource="http://purl.org/dc/dcmitype/StillImage" />
        <dc:title></dc:title>
      </cc:Work>
    </rdf:RDF>
  </metadata>
  <defs
     id="defs10" />
  <sodipodi:namedview
     pagecolor="#ffffff"
     bordercolor="#666666"
     borderopacity="1"
     objecttolerance="10"
     gridtolerance="10"
     guidetolerance="10"
     inkscape:pageopacity="0"
     inkscape:pageshadow="2"
     inkscape:window-width="1680"
     inkscape:window-height="1013"
     id="namedview8"
     showgrid="false"
     inkscape:zoom="7.375"
     inkscape:cx="0.20338983"
     inkscape:cy="16"
     inkscape:window-x="1920"
     inkscape:window-y="0"
     inkscape:window-maximized="1"
     inkscape:current-layer="svg2" />
  <path
     d="M 14 1 L 14 5 L 6 5 L 6 31 L 26 31 L 26 5 L 18 5 L 18 1 L 14 1 z M 15.958984 2 A 1 1 0 0 1 16 2 A 1 1 0 0 1 16 4 A 1 1 0 0 1 15.958984 2 z M 8 7 L 14 7 L 14 9 L 18 9 L 18 7 L 24 7 L 24 29 L 8 29 L 8 7 z M 10 10.982422 L 10 17.982422 L 12 17.982422 L 12 10.982422 L 10 10.982422 z M 15 10.982422 L 15 17.982422 L 22 17.982422 L 22 10.982422 L 15 10.982422 z M 17 12.982422 L 20 12.982422 L 20 15.982422 L 17 15.982422 L 17 12.982422 z M 10 19.982422 L 10 26.982422 L 17 26.982422 L 17 19.982422 L 10 19.982422 z M 20 19.982422 L 20 26.982422 L 22 26.982422 L 22 19.982422 L 20 19.982422 z M 12 21.982422 L 15 21.982422 L 15 24.982422 L 12 24.982422 L 12 21.982422 z "
     id="path4" />
</svg>
