<?xml version="1.0" encoding="UTF-8" standalone="no"?>
<svg
   xmlns:dc="http://purl.org/dc/elements/1.1/"
   xmlns:cc="http://creativecommons.org/ns#"
   xmlns:rdf="http://www.w3.org/1999/02/22-rdf-syntax-ns#"
   xmlns:svg="http://www.w3.org/2000/svg"
   xmlns="http://www.w3.org/2000/svg"
   xmlns:sodipodi="http://sodipodi.sourceforge.net/DTD/sodipodi-0.dtd"
   xmlns:inkscape="http://www.inkscape.org/namespaces/inkscape"
   width="24"
   height="24"
   viewBox="0 0 24 24"
   id="svg4268"
   version="1.1"
   inkscape:version="0.91 r13725"
   sodipodi:docname="server_24.svg">
  <metadata
     id="metadata4278">
    <rdf:RDF>
      <cc:Work
         rdf:about="">
        <dc:format>image/svg+xml</dc:format>
        <dc:type
           rdf:resource="http://purl.org/dc/dcmitype/StillImage" />
      </cc:Work>
    </rdf:RDF>
  </metadata>
  <defs
     id="defs4276" />
  <sodipodi:namedview
     pagecolor="#ffffff"
     bordercolor="#666666"
     borderopacity="1"
     objecttolerance="10"
     gridtolerance="10"
     guidetolerance="10"
     inkscape:pageopacity="0"
     inkscape:pageshadow="2"
     inkscape:window-width="1680"
     inkscape:window-height="1013"
     id="namedview4274"
     showgrid="false"
     inkscape:zoom="13.906433"
     inkscape:cx="6.8762192"
     inkscape:cy="9.6097654"
     inkscape:window-x="1920"
     inkscape:window-y="0"
     inkscape:window-maximized="1"
     inkscape:current-layer="svg4268" />
  <path
     d="M 3 0 L 3 24 L 21 24 L 21 0 L 20.480469 0 L 3 0 z M 5.171875 1.9980469 L 18.830078 1.9980469 L 18.830078 22.003906 L 5.171875 22.003906 L 5.171875 1.9980469 z M 6.5 3 L 6.5 10 L 17.5 10 L 17.5 3 L 17.019531 3 L 6.5 3 z M 8.3710938 4.9648438 L 15.628906 4.9648438 L 15.628906 8.0332031 L 8.3710938 8.0332031 L 8.3710938 4.9648438 z M 13.5 12 L 13.5 16 L 17.5 16 L 17.5 12 L 13.5 12 z M 14.833984 13.333984 L 16.166016 13.333984 L 16.166016 14.666016 L 14.833984 14.666016 L 14.833984 13.333984 z M 13.5 16.5 L 13.5 20.5 L 17.5 20.5 L 17.5 16.5 L 13.5 16.5 z M 14.833984 17.833984 L 16.166016 17.833984 L 16.166016 19.166016 L 14.833984 19.166016 L 14.833984 17.833984 z "
     id="path4862" />
</svg>
