<?xml version="1.0" encoding="UTF-8" standalone="no"?>
<svg
   xmlns:dc="http://purl.org/dc/elements/1.1/"
   xmlns:cc="http://creativecommons.org/ns#"
   xmlns:rdf="http://www.w3.org/1999/02/22-rdf-syntax-ns#"
   xmlns:svg="http://www.w3.org/2000/svg"
   xmlns="http://www.w3.org/2000/svg"
   xmlns:sodipodi="http://sodipodi.sourceforge.net/DTD/sodipodi-0.dtd"
   xmlns:inkscape="http://www.inkscape.org/namespaces/inkscape"
   width="24"
   height="24"
   viewBox="0 0 24 24"
   id="svg2"
   version="1.1"
   inkscape:version="0.91 r13725"
   sodipodi:docname="term_24.svg">
  <metadata
     id="metadata10">
    <rdf:RDF>
      <cc:Work
         rdf:about="">
        <dc:format>image/svg+xml</dc:format>
        <dc:type
           rdf:resource="http://purl.org/dc/dcmitype/StillImage" />
      </cc:Work>
    </rdf:RDF>
  </metadata>
  <defs
     id="defs8" />
  <sodipodi:namedview
     pagecolor="#ffffff"
     bordercolor="#666666"
     borderopacity="1"
     objecttolerance="10"
     gridtolerance="10"
     guidetolerance="10"
     inkscape:pageopacity="0"
     inkscape:pageshadow="2"
     inkscape:window-width="1920"
     inkscape:window-height="1016"
     id="namedview6"
     showgrid="false"
     inkscape:zoom="22.627417"
     inkscape:cx="11.424645"
     inkscape:cy="6.7907056"
     inkscape:window-x="0"
     inkscape:window-y="27"
     inkscape:window-maximized="1"
     inkscape:current-layer="svg2" />
  <path
     d="m 9.0117188,2.3476564 c -1.4361595,0 -2.6333934,1.1535022 -2.6757813,2.5820312 l -0.00586,0 0,1.0703125 -3.2421875,0 c -1.1230146,0 -2.0585937,0.933626 -2.0585937,2.0566407 l 0,11.8847652 C 1.0292969,21.064421 1.964876,22 3.0878906,22 l 17.8847654,0 c 1.123015,0 2.056641,-0.935579 2.056641,-2.058594 l 0,-11.8847652 c 0,-1.1230147 -0.933626,-2.0566407 -2.056641,-2.0566407 l -3.300781,0 0,-0.9707031 0,-0.099609 -0.01172,0 C 17.606435,3.5130831 16.442012,2.3476564 15.011719,2.3476564 l -6.0000002,0 z m 0.00195,2 6.0000001,0 c 0.368493,0 0.658203,0.2856202 0.658203,0.6816406 l 0,0.9707031 -7.3417969,0 0,-0.9941406 c 0,-0.3684873 0.2875665,-0.6582031 0.6835938,-0.6582031 z m -5.9257813,3.6523437 17.8847654,0 c 0.04957,0 0.05664,0.00707 0.05664,0.056641 l 0,11.8847652 c 0,0.04957 -0.0071,0.05859 -0.05664,0.05859 L 3.0878906,20 c -0.049572,0 -0.058594,-0.009 -0.058594,-0.05859 l 0,-11.8847652 c 0,-0.049572 0.00902,-0.056641 0.058594,-0.056641 z"
     id="path4157" />
  <path
     d="m 8.9882812,9.7929688 c -0.8473412,0 -1.5449218,0.6975802 -1.5449218,1.5449222 l 0,3.082031 c 0,0.847342 0.6975806,1.544922 1.5449218,1.544922 l 1.5585938,0 -0.05664,1.90625 2.888672,-1.90625 1.691406,0 c 0.847342,0 1.544922,-0.69758 1.544922,-1.544922 l 0,-3.082031 c 0,-0.847342 -0.69758,-1.5449222 -1.544922,-1.5449222 l -6.0820308,0 z m 0,1.0000002 6.0820308,0 c 0.310639,0 0.544922,0.234283 0.544922,0.544922 l 0,3.082031 c 0,0.31064 -0.234283,0.544922 -0.544922,0.544922 l -1.992187,0 -1.53125,1.011718 0.03125,-1.011718 -2.5898438,0 c -0.3106387,0 -0.5449218,-0.234282 -0.5449218,-0.544922 l 0,-3.082031 c 0,-0.310639 0.2342831,-0.544922 0.5449218,-0.544922 z"
     id="rect4133" />
</svg>
